<svg width="32" height="32" viewBox="0 0 32 32" fill="none" xmlns="http://www.w3.org/2000/svg">
<g clip-path="url(#clip0_12_2744)">
<mask id="mask0_12_2744" style="mask-type:alpha" maskUnits="userSpaceOnUse" x="0" y="0" width="32" height="32">
<g clip-path="url(#clip1_12_2744)">
<g clip-path="url(#clip2_12_2744)">
<path d="M13.1 27.71C13 27.71 12.9 27.7 12.8 27.67C12.19 27.51 11.83 26.88 11.99 26.27L17.5 5.70002C17.66 5.09002 18.29 4.73002 18.9 4.89002C19.51 5.05002 19.87 5.68002 19.71 6.29002L14.2 26.86C14.06 27.37 13.6 27.71 13.1 27.71Z" fill="#666666"/>
<path d="M24.43 23.71C24.14 23.71 23.85 23.6 23.62 23.38C23.17 22.93 23.17 22.21 23.62 21.76L29.1 16.28L23.62 10.8C23.17 10.35 23.17 9.63002 23.62 9.18002C24.07 8.73002 24.79 8.73002 25.24 9.18002L31.53 15.47C31.98 15.92 31.98 16.64 31.53 17.09L25.24 23.38C25.02 23.6 24.72 23.71 24.43 23.71Z" fill="#666666"/>
<path d="M7.28999 23.71C6.99999 23.71 6.70999 23.6 6.47999 23.38L0.189985 17.09C-0.0200147 16.88 -0.140015 16.59 -0.140015 16.28C-0.140015 15.97 -0.0200147 15.69 0.189985 15.47L6.47999 9.18002C6.92999 8.73002 7.64999 8.73002 8.09999 9.18002C8.54999 9.63002 8.54999 10.35 8.09999 10.8L2.61999 16.28L8.09999 21.76C8.54999 22.21 8.54999 22.93 8.09999 23.38C7.87999 23.6 7.57999 23.71 7.28999 23.71Z" fill="#666666"/>
</g>
</g>
</mask>
<g mask="url(#mask0_12_2744)">
<path d="M0 0H32V32H0V0Z" fill="#666666"/>
</g>
</g>
<defs>
<clipPath id="clip0_12_2744">
<rect width="32" height="32" fill="white"/>
</clipPath>
<clipPath id="clip1_12_2744">
<rect width="32" height="32" fill="white"/>
</clipPath>
<clipPath id="clip2_12_2744">
<rect width="32" height="32" fill="white"/>
</clipPath>
</defs>
</svg>
