<svg width="32" height="32" viewBox="0 0 32 32" fill="none" xmlns="http://www.w3.org/2000/svg">
<g clip-path="url(#clip0_12_2715)">
<mask id="mask0_12_2715" style="mask-type:alpha" maskUnits="userSpaceOnUse" x="0" y="0" width="32" height="32">
<g clip-path="url(#clip1_12_2715)">
<path d="M17.4286 7.14272C18.0571 7.14272 18.5714 7.657 18.5714 8.28557C18.5714 8.91415 18.0571 9.42843 17.4286 9.42843H15.1429C14.5143 9.42843 14 8.91415 14 8.28557C14 7.657 14.5143 7.14272 15.1429 7.14272H17.4286Z" fill="#666666"/>
<path fill-rule="evenodd" clip-rule="evenodd" d="M26.5714 2.57129C28.4571 2.57129 30 4.11415 30 5.99986V19.7141C30 21.5999 28.4571 23.1427 26.5714 23.1427H17.4286V27.7141H22C22.6286 27.7141 23.1429 28.2284 23.1429 28.857C23.1429 29.4856 22.6286 29.9999 22 29.9999H10.5714C9.94286 29.9999 9.42857 29.4856 9.42857 28.857C9.42857 28.2284 9.94286 27.7141 10.5714 27.7141H15.1429V23.1427H6C4.11428 23.1427 2.57143 21.5999 2.57143 19.7141V5.99986C2.57143 4.11415 4.11428 2.57129 6 2.57129H26.5714ZM6 4.857C5.37143 4.857 4.85714 5.37129 4.85714 5.99986V19.7141C4.85714 20.3427 5.37143 20.857 6 20.857H26.5714C27.2 20.857 27.7143 20.3427 27.7143 19.7141V5.99986C27.7143 5.37129 27.2 4.857 26.5714 4.857H6Z" fill="#666666"/>
</g>
</mask>
<g mask="url(#mask0_12_2715)">
<path d="M0 0H32V32H0V0Z" fill="#666666"/>
</g>
</g>
<defs>
<clipPath id="clip0_12_2715">
<rect width="32" height="32" fill="white"/>
</clipPath>
<clipPath id="clip1_12_2715">
<rect width="32" height="32" fill="white"/>
</clipPath>
</defs>
</svg>
