<svg width="32" height="32" viewBox="0 0 32 32" fill="none" xmlns="http://www.w3.org/2000/svg">
<g clip-path="url(#clip0_12_2836)">
<mask id="mask0_12_2836" style="mask-type:alpha" maskUnits="userSpaceOnUse" x="0" y="0" width="32" height="32">
<g clip-path="url(#clip1_12_2836)">
<path fill-rule="evenodd" clip-rule="evenodd" d="M22.3773 2.57129C23.2916 2.57131 24.1603 2.93689 24.8003 3.57687L29.0168 7.81682C30.3426 9.15397 30.3426 11.3257 29.0168 12.6628L11.9889 29.6918C11.7719 29.9088 11.4859 30.0221 11.1776 30.0222L11.1653 30.0345H3.71439C3.08592 30.0345 2.5717 29.52 2.57153 28.8916V21.4396C2.57161 21.1311 2.69735 20.8453 2.90301 20.6282L19.9543 3.57687C20.6058 2.92547 21.4631 2.57129 22.3773 2.57129ZM4.84609 21.9083V27.7487H10.6976L24.1084 14.3369L18.2624 8.49093L4.84609 21.9083ZM22.3662 4.86816C22.0578 4.86816 21.7719 4.9827 21.5548 5.19964L19.874 6.87932L25.72 12.7253L27.3941 11.0512C27.8398 10.6055 27.8398 9.88531 27.3941 9.43959L23.1776 5.19964C22.9605 4.98258 22.6746 4.86825 22.3662 4.86816Z" fill="#666666"/>
</g>
</mask>
<g mask="url(#mask0_12_2836)">
<path d="M0 0H32V32H0V0Z" fill="#666666"/>
</g>
</g>
<defs>
<clipPath id="clip0_12_2836">
<rect width="32" height="32" fill="white"/>
</clipPath>
<clipPath id="clip1_12_2836">
<rect width="32" height="32" fill="white"/>
</clipPath>
</defs>
</svg>
