<svg width="32" height="32" viewBox="0 0 32 32" fill="none" xmlns="http://www.w3.org/2000/svg">
<g clip-path="url(#clip0_12_2779)">
<mask id="mask0_12_2779" style="mask-type:alpha" maskUnits="userSpaceOnUse" x="0" y="0" width="32" height="32">
<g clip-path="url(#clip1_12_2779)">
<path d="M13.9999 8.28578C14.6285 8.28578 15.1428 8.80007 15.1428 9.42864C15.1428 10.0572 14.6285 10.5715 13.9999 10.5715H5.99995V26.5715H21.9999V18.5715C21.9999 17.9429 22.5142 17.4286 23.1428 17.4286C23.7714 17.4286 24.2857 17.9429 24.2857 18.5715V27.7144C24.2857 28.3429 23.7714 28.8572 23.1428 28.8572H4.85709C4.22852 28.8572 3.71423 28.3429 3.71423 27.7144V9.42864C3.71423 8.80007 4.22852 8.28578 4.85709 8.28578H13.9999Z" fill="#666666"/>
<path d="M13.1662 20.5492H13.154L13.1595 20.5481L13.1662 20.5492Z" fill="#666666"/>
<path d="M27.7142 3.71436C28.3428 3.71436 28.8571 4.22864 28.8571 4.85721V14.0001C28.8571 14.6286 28.3428 15.1429 27.7142 15.1429C27.0857 15.1429 26.5714 14.6286 26.5714 14.0001V7.61168L13.9654 20.2177C13.7382 20.4446 13.4546 20.5469 13.1595 20.5481C12.8649 20.5465 12.5817 20.433 12.3549 20.2177C11.9091 19.772 11.9091 19.0518 12.3549 18.6061L24.9598 6.00007H18.5714C17.9428 6.00007 17.4285 5.48578 17.4285 4.85721C17.4285 4.22864 17.9428 3.71436 18.5714 3.71436H27.7142Z" fill="#666666"/>
</g>
</mask>
<g mask="url(#mask0_12_2779)">
<path d="M0 0H32V32H0V0Z" fill="#666666"/>
</g>
</g>
<defs>
<clipPath id="clip0_12_2779">
<rect width="32" height="32" fill="white"/>
</clipPath>
<clipPath id="clip1_12_2779">
<rect width="32" height="32" fill="white"/>
</clipPath>
</defs>
</svg>
