<svg width="32" height="32" viewBox="0 0 32 32" fill="none" xmlns="http://www.w3.org/2000/svg">
<g clip-path="url(#clip0_12_2762)">
<mask id="mask0_12_2762" style="mask-type:alpha" maskUnits="userSpaceOnUse" x="0" y="0" width="32" height="32">
<g clip-path="url(#clip1_12_2762)">
<g clip-path="url(#clip2_12_2762)">
<path d="M16.2857 7.14258C17.1084 7.14258 17.9311 7.19994 18.731 7.32561C19.3595 7.41703 19.7832 7.99961 19.692 8.62807C19.6005 9.25664 19.0055 9.67932 18.3884 9.58789C17.7027 9.48506 16.9942 9.42829 16.2857 9.42829C8.71999 9.42829 2.57142 15.5769 2.57142 23.1426C2.57142 23.7712 2.05713 24.2854 1.42856 24.2854C0.799991 24.2854 0.285706 23.7712 0.285706 23.1426C0.285706 14.3197 7.46285 7.14258 16.2857 7.14258Z" fill="#666666"/>
<path fill-rule="evenodd" clip-rule="evenodd" d="M26 8.43387C26.4457 8.17105 27.0171 8.25121 27.3828 8.61691C27.7485 8.98261 27.8287 9.54259 27.5658 9.99972L20.7087 21.8736C19.8516 23.3593 18.2511 24.2854 16.5368 24.2854L16.5257 24.2743C13.8744 24.2743 11.7145 22.1142 11.7143 19.4629C11.7143 17.7486 12.6404 16.1482 14.1261 15.291L26 8.43387ZM15.2567 17.2687C14.4798 17.7145 13.9888 18.5602 13.9888 19.4629C13.989 20.857 15.1203 21.9886 16.5145 21.9886C17.4173 21.9885 18.2516 21.5081 18.7087 20.7196L23.4118 12.5645L15.2567 17.2687Z" fill="#666666"/>
<path d="M28.2745 14.2854C28.8117 13.9541 29.5087 14.1144 29.8516 14.6515C31.4514 17.1886 32.2857 20.1256 32.2857 23.1426C32.2857 23.7712 31.7714 24.2854 31.1428 24.2854C30.5143 24.2854 30 23.7711 30 23.1426C30 20.5597 29.2799 18.0453 27.9085 15.8624C27.5772 15.3253 27.7375 14.6283 28.2745 14.2854Z" fill="#666666"/>
</g>
</g>
</mask>
<g mask="url(#mask0_12_2762)">
<path d="M0 0H32V32H0V0Z" fill="#666666"/>
</g>
</g>
<defs>
<clipPath id="clip0_12_2762">
<rect width="32" height="32" fill="white"/>
</clipPath>
<clipPath id="clip1_12_2762">
<rect width="32" height="32" fill="white"/>
</clipPath>
<clipPath id="clip2_12_2762">
<rect width="32" height="32" fill="white"/>
</clipPath>
</defs>
</svg>
