<svg width="32" height="32" viewBox="0 0 32 32" fill="none" xmlns="http://www.w3.org/2000/svg">
<g clip-path="url(#clip0_12_2824)">
<mask id="mask0_12_2824" style="mask-type:alpha" maskUnits="userSpaceOnUse" x="0" y="0" width="32" height="32">
<g clip-path="url(#clip1_12_2824)">
<g clip-path="url(#clip2_12_2824)">
<path d="M2.48034 2.18994C2.93035 1.74014 3.65052 1.74001 4.10045 2.18994L29.2401 27.3306C29.6898 27.7805 29.6898 28.4998 29.2401 28.9497C29.0202 29.1696 28.7204 29.2797 28.4305 29.2798V29.2905C28.1406 29.2905 27.85 29.1804 27.62 28.9604L2.48034 3.81005C2.03034 3.36005 2.03034 2.63994 2.48034 2.18994Z" fill="#666666"/>
<path d="M3.6903 10.7397C4.1703 10.3298 4.89067 10.3799 5.30065 10.8599C5.7106 11.3399 5.66051 12.0602 5.18053 12.4702C4.12063 13.3801 3.18068 14.4299 2.38073 15.5698C5.46065 20.0097 10.4502 22.6302 15.87 22.6304C16.59 22.6304 17.3106 22.5797 18.0106 22.4897C18.6305 22.3999 19.2099 22.8503 19.2899 23.4702C19.3698 24.0902 18.9304 24.6705 18.3104 24.7505C17.5104 24.8505 16.69 24.9097 15.87 24.9097L15.8602 24.9204C9.41028 24.9204 3.49988 21.6501 0.0399058 16.1802C-0.199919 15.8104 -0.199732 15.3303 0.0399058 14.9604C1.03991 13.3804 2.2703 11.9597 3.6903 10.7397Z" fill="#666666"/>
<path d="M27.2899 20.6802H27.2801L27.285 20.6792L27.2899 20.6802Z" fill="#666666"/>
<path d="M15.8505 6.21044C22.3002 6.21054 28.2098 9.48003 31.6698 14.9497C31.9098 15.3197 31.9098 15.8004 31.6698 16.1704C30.6699 17.7502 29.4402 19.17 28.0204 20.3999C27.8017 20.5887 27.5434 20.6781 27.285 20.6792C26.9667 20.6778 26.6486 20.5483 26.4198 20.2798C26.0102 19.7999 26.0603 19.0804 26.5399 18.6704C27.5999 17.7604 28.5397 16.7098 29.3397 15.5698C26.2597 11.1301 21.2702 8.51034 15.8505 8.51025C15.4905 8.51025 15.1401 8.52052 14.7801 8.54052C14.1502 8.57049 13.6105 8.10009 13.5604 7.47021C13.5104 6.84036 14 6.30071 14.6297 6.25048C15.0297 6.22048 15.4405 6.21044 15.8505 6.21044Z" fill="#666666"/>
</g>
</g>
</mask>
<g mask="url(#mask0_12_2824)">
<path d="M0 0H32V32H0V0Z" fill="#666666"/>
</g>
</g>
<defs>
<clipPath id="clip0_12_2824">
<rect width="32" height="32" fill="white"/>
</clipPath>
<clipPath id="clip1_12_2824">
<rect width="32" height="32" fill="white"/>
</clipPath>
<clipPath id="clip2_12_2824">
<rect width="32" height="32" fill="white"/>
</clipPath>
</defs>
</svg>
