<svg width="32" height="32" viewBox="0 0 32 32" fill="none" xmlns="http://www.w3.org/2000/svg">
<g clip-path="url(#clip0_12_2639)">
<mask id="mask0_12_2639" style="mask-type:alpha" maskUnits="userSpaceOnUse" x="0" y="0" width="32" height="32">
<g clip-path="url(#clip1_12_2639)">
<path d="M17.634 30.2633H17.6229L17.6273 30.2621L17.634 30.2633Z" fill="#666666"/>
<path d="M19.5894 17.4061C19.7494 16.8004 20.3776 16.4336 20.9834 16.5936C21.589 16.7537 21.9547 17.383 21.7947 17.9887L18.7322 29.4173C18.5954 29.9301 18.1399 30.2603 17.6273 30.2621C17.5274 30.2616 17.4376 30.251 17.3372 30.2287C16.7317 30.0686 16.3662 29.4402 16.5258 28.8347L19.5894 17.4061Z" fill="#666666"/>
<path fill-rule="evenodd" clip-rule="evenodd" d="M19.7144 2.57129C19.7616 2.57129 19.8081 2.57458 19.8539 2.58022C19.9071 2.58682 19.9591 2.59769 20.0102 2.61147C20.0408 2.61973 20.071 2.62867 20.1006 2.63937C20.2586 2.69628 20.4032 2.78662 20.5258 2.90276L29.6686 12.0456C29.908 12.285 30.0179 12.6035 30.0001 12.9162V16.2856C30.0001 16.9141 29.4858 17.4284 28.8572 17.4284C28.2287 17.4284 27.7144 16.9141 27.7144 16.2856V13.9999H22.0001C20.1144 13.9999 18.5715 12.457 18.5715 10.5713V4.84584H6.0001C5.37153 4.84584 4.85725 5.36013 4.85725 5.9887V26.5601C4.85739 27.1886 5.37162 27.703 6.0001 27.703H7.14296C7.77153 27.703 8.28582 28.2173 8.28582 28.8458C8.28567 29.4743 7.77144 29.9887 7.14296 29.9887V29.9999H6.0001C4.11439 29.9999 2.57153 28.457 2.57153 26.5713V5.99986C2.57153 4.11415 4.11439 2.57129 6.0001 2.57129H19.7144ZM20.8572 10.5713C20.8572 11.1999 21.3715 11.7141 22.0001 11.7141H26.1139L20.8572 6.45745V10.5713Z" fill="#666666"/>
<path d="M25.1541 19.165C25.5998 18.7197 26.3201 18.7196 26.7657 19.165L30.1709 22.5713C30.388 22.7884 30.5023 23.0741 30.5023 23.3827C30.5023 23.6912 30.3766 23.9769 30.1709 24.1941L26.7657 27.6003C26.5372 27.8287 26.2514 27.9317 25.9543 27.9318L25.9655 27.9083C25.6684 27.9083 25.3827 27.794 25.1541 27.5769C24.7085 27.1311 24.7084 26.4109 25.1541 25.9653L27.749 23.3715L25.1541 20.7766C24.7086 20.3309 24.7085 19.6107 25.1541 19.165Z" fill="#666666"/>
<path d="M11.5537 19.1427C11.9993 18.6971 12.7196 18.6972 13.1653 19.1427C13.611 19.5884 13.611 20.3086 13.1653 20.7543L10.5715 23.3481L13.1653 25.9429C13.611 26.3887 13.611 27.1088 13.1653 27.5545C12.9368 27.7829 12.6509 27.886 12.3539 27.886L12.3662 27.9083C12.069 27.9083 11.7822 27.794 11.5537 27.5769L8.14854 24.1717C7.93152 23.9547 7.81719 23.6687 7.81707 23.3604C7.81707 23.0519 7.94298 22.7661 8.14854 22.549L11.5537 19.1427Z" fill="#666666"/>
</g>
</mask>
<g mask="url(#mask0_12_2639)">
<path d="M0 0H32V32H0V0Z" fill="#666666"/>
</g>
</g>
<defs>
<clipPath id="clip0_12_2639">
<rect width="32" height="32" fill="white"/>
</clipPath>
<clipPath id="clip1_12_2639">
<rect width="32" height="32" fill="white"/>
</clipPath>
</defs>
</svg>
