<svg width="32" height="32" viewBox="0 0 32 32" fill="none" xmlns="http://www.w3.org/2000/svg">
<g clip-path="url(#clip0_12_2570)">
<mask id="mask0_12_2570" style="mask-type:alpha" maskUnits="userSpaceOnUse" x="0" y="0" width="32" height="32">
<g clip-path="url(#clip1_12_2570)">
<g clip-path="url(#clip2_12_2570)">
<path fill-rule="evenodd" clip-rule="evenodd" d="M12.8572 0.285156C13.4857 0.285156 14 0.799442 14 1.42801V8.28516C14 8.91373 13.4857 9.42801 12.8572 9.42801H10.5715V15.1423H18.5715V12.8566C18.5715 12.228 19.0857 11.7137 19.7143 11.7137H26.5715C27.2 11.7137 27.7143 12.228 27.7143 12.8566V19.7137C27.7143 20.3423 27.2 20.8566 26.5715 20.8566H19.7143C19.0857 20.8566 18.5715 20.3423 18.5715 19.7137V17.428H10.5715V25.428C10.5715 26.0566 11.0857 26.5709 11.7143 26.5709H18.5715V24.2852C18.5715 23.6566 19.0857 23.1423 19.7143 23.1423H26.5715C27.2 23.1423 27.7143 23.6566 27.7143 24.2852V31.1423C27.7143 31.7709 27.2 32.2852 26.5715 32.2852H19.7143C19.0857 32.2852 18.5715 31.7709 18.5715 31.1423V28.8566H11.7143C9.82861 28.8566 8.28575 27.3137 8.28575 25.428V9.42801H6.00003C5.37146 9.42801 4.85718 8.91373 4.85718 8.28516V1.42801C4.85718 0.799442 5.37146 0.285156 6.00003 0.285156H12.8572ZM20.8572 29.9994H25.4286V25.428H20.8572V29.9994ZM20.8572 18.5709H25.4286V13.9994H20.8572V18.5709ZM7.14289 7.1423H11.7143V2.57087H7.14289V7.1423Z" fill="#666666"/>
</g>
</g>
</mask>
<g mask="url(#mask0_12_2570)">
<path d="M0 0H32V32H0V0Z" fill="#666666"/>
</g>
</g>
<defs>
<clipPath id="clip0_12_2570">
<rect width="32" height="32" fill="white"/>
</clipPath>
<clipPath id="clip1_12_2570">
<rect width="32" height="32" fill="white"/>
</clipPath>
<clipPath id="clip2_12_2570">
<rect width="32" height="32" fill="white"/>
</clipPath>
</defs>
</svg>
