<svg width="32" height="32" viewBox="0 0 32 32" fill="none" xmlns="http://www.w3.org/2000/svg">
<g clip-path="url(#clip0_1169_10)">
<mask id="mask0_1169_10" style="mask-type:alpha" maskUnits="userSpaceOnUse" x="0" y="0" width="32" height="32">
<g clip-path="url(#clip1_1169_10)">
<path d="M28.8571 31.142H28.846L28.8515 31.1409L28.8571 31.142Z" fill="#666666"/>
<path fill-rule="evenodd" clip-rule="evenodd" d="M20.7544 15.142C24.4801 15.1421 27.5089 18.1708 27.5089 21.8965C27.5089 23.3512 27.0447 24.6983 26.26 25.8016L29.6573 29.1989C30.103 29.6446 30.1029 30.3648 29.6573 30.8105C29.4303 31.0376 29.1466 31.1395 28.8515 31.1409C28.5564 31.1395 28.2729 31.0263 28.0457 30.8105L24.6462 27.411C23.5453 28.19 22.2034 28.6509 20.7544 28.6509C17.0288 28.6509 14.0001 25.6221 14 21.8965C14 18.1708 17.0287 15.142 20.7544 15.142ZM20.7544 17.4277C18.2859 17.4277 16.2857 19.4279 16.2857 21.8965C16.2858 24.365 18.2859 26.3652 20.7544 26.3652C23.2229 26.3651 25.2231 24.3649 25.2232 21.8965C25.2232 19.428 23.2229 17.4278 20.7544 17.4277Z" fill="#666666"/>
<path d="M22 1.42773C23.8857 1.42773 25.4286 2.97059 25.4286 4.85631V12.8563C25.4286 13.4849 24.9143 13.9992 24.2857 13.9992C23.6571 13.9992 23.1428 13.4849 23.1428 12.8563V4.85631C23.1428 4.22773 22.6286 3.71345 22 3.71345H5.99998C5.37141 3.71345 4.85713 4.22773 4.85713 4.85631V25.4277C4.85713 26.0563 5.37141 26.5706 5.99998 26.5706H12.8571C13.4857 26.5706 14 27.0849 14 27.7134C14 28.342 13.4857 28.8563 12.8571 28.8563H5.99998C4.11427 28.8563 2.57141 27.3134 2.57141 25.4277V4.85631C2.57141 2.97059 4.11427 1.42773 5.99998 1.42773H22Z" fill="#666666"/>
<path d="M11.7143 15.142C12.3428 15.142 12.8571 15.6563 12.8571 16.2849C12.8571 16.9134 12.3428 17.4277 11.7143 17.4277H8.2857C7.65712 17.4277 7.14284 16.9134 7.14284 16.2849C7.14284 15.6563 7.65712 15.142 8.2857 15.142H11.7143Z" fill="#666666"/>
<path d="M19.7143 10.5706C20.3428 10.5706 20.8571 11.0849 20.8571 11.7134C20.8571 12.342 20.3428 12.8563 19.7143 12.8563H8.2857C7.65712 12.8563 7.14284 12.342 7.14284 11.7134C7.14284 11.0849 7.65712 10.5706 8.2857 10.5706H19.7143Z" fill="#666666"/>
<path d="M19.7143 5.99916C20.3428 5.99916 20.8571 6.51345 20.8571 7.14202C20.8571 7.77059 20.3428 8.28488 19.7143 8.28488H8.2857C7.65712 8.28488 7.14284 7.77059 7.14284 7.14202C7.14284 6.51345 7.65712 5.99916 8.2857 5.99916H19.7143Z" fill="#666666"/>
</g>
</mask>
<g mask="url(#mask0_1169_10)">
<path d="M0 0H32V32H0V0Z" fill="#666666"/>
</g>
</g>
<defs>
<clipPath id="clip0_1169_10">
<rect width="32" height="32" fill="white"/>
</clipPath>
<clipPath id="clip1_1169_10">
<rect width="32" height="32" fill="white"/>
</clipPath>
</defs>
</svg>
