<?xml version="1.0" encoding="utf-8"?>
<!-- Generator: Adobe Illustrator 23.0.2, SVG Export Plug-In . SVG Version: 6.00 Build 0)  -->
<svg version="1.1"
	 id="svg3336" xmlns:cc="http://creativecommons.org/ns#" xmlns:dc="http://purl.org/dc/elements/1.1/" xmlns:inkscape="http://www.inkscape.org/namespaces/inkscape" xmlns:rdf="http://www.w3.org/1999/02/22-rdf-syntax-ns#" xmlns:sodipodi="http://sodipodi.sourceforge.net/DTD/sodipodi-0.dtd" xmlns:svg="http://www.w3.org/2000/svg"
	 xmlns="http://www.w3.org/2000/svg" xmlns:xlink="http://www.w3.org/1999/xlink" x="0px" y="0px" viewBox="0 0 885.8 354.3"
	 style="enable-background:new 0 0 885.8 354.3;" xml:space="preserve">
<style type="text/css">
	.st0{fill:#ffffff;}
	.st1{fill:#ffffff;}
	.st2{fill:#ffffff;}
	.st3{fill:#ffffff;}
	.st4{fill:#ffffff;}
	.st5{fill:#ffffff;}
	.st6{fill:#ffffff;}
	.st7{font-family:'MyriadPro-Regular';}
	.st8{font-size:48px;}
	.st9{letter-spacing:6;}
</style>
<sodipodi:namedview  bordercolor="#666666" borderopacity="1" gridtolerance="10" guidetolerance="10" id="namedview3338" inkscape:current-layer="g3344" inkscape:cx="442.91336" inkscape:cy="177.16537" inkscape:pageopacity="0" inkscape:pageshadow="2" inkscape:window-height="1027" inkscape:window-maximized="1" inkscape:window-width="1920" inkscape:window-x="1592" inkscape:window-y="-8" inkscape:zoom="1.4912623" objecttolerance="10" pagecolor="#ffffff" showgrid="false">
	</sodipodi:namedview>
<g id="g3344" transform="matrix(1.25,0,0,-1.25,0,354.33075)" inkscape:groupmode="layer" inkscape:label="logo_Doodles">
	<path id="path3346" inkscape:connector-curvature="0" class="st0" d="M89.5,168.8H95c36.6,0,35.5-54,0-54h-5.5V168.8z M65.5,188.5
		V95.2h33c63.6,0,65.7,93.4,0,93.4h-33V188.5z M281.3,142.1c-8.3,0-15-6.8-15-15.2s6.7-15.2,15-15.2s15,6.8,15,15.2
		C296.4,135.3,289.6,142.1,281.3,142.1z M281.3,161.3c20.8,0,37.8-15.4,37.8-34.5c0-19-16.9-34.5-37.8-34.5s-37.8,15.4-37.8,34.5
		C243.6,145.9,260.5,161.3,281.3,161.3z M195.5,142.1c8.3,0,15-6.8,15-15.2s-6.7-15.2-15-15.2s-15,6.8-15,15.2
		S187.2,142.1,195.5,142.1z M195.5,161.3c-20.8,0-37.8-15.4-37.8-34.5c0-19,16.9-34.5,37.8-34.5s37.8,15.4,37.8,34.5
		S216.4,161.3,195.5,161.3z M362.7,160.5c8.5-0.2,14.3-3.6,18-9.4v46.4h22.4V95.2h-22.4v6.2c-5.3-5.6-11.7-8.4-18-8.4
		c-18.7,0-33.9,14.9-33.9,33.9C328.8,145.9,344,160.9,362.7,160.5z M366.6,141.5c-8.3,0-14.2-6.2-14.2-14.6s5.9-14.9,14.2-14.9
		s14.4,6.5,14.4,14.9S374.9,141.5,366.6,141.5z M417.9,197.5H440V95.2h-22.1V197.5z M489.2,146.7c6.3,0,11.2-4.4,13.5-10.8h-27
		C478.1,142.3,483,146.7,489.2,146.7z M522.1,123.2c0.1,1.2,0.2,2.3,0.2,3.5c0,18.9-15.6,34.3-34.8,34.3s-34.8-15.4-34.8-34.3
		s16.6-34.3,34.8-34.3s29.3,9.1,34.5,21.7h-21.8c-2.7-4-5.5-6.6-11.6-6.6s-12.9,6.6-14.2,15.6C474.5,123.2,522.1,123.2,522.1,123.2z
		 M585.3,164.8h6l1.1,6.6h4.5l-1.1-6.6h6l1.1,6.6h4.1l1,6h-4.1l0.8,4.5h4.1l1,6h-4.1l1.1,6.2h-6l-1.1-6.2h-4.5l1.1,6.2h-6l-1.1-6.2
		h-4.1l-1-6h4.1l-0.8-4.5h-4.1l-1-6h4.1L585.3,164.8L585.3,164.8z M593.4,177.3l0.8,4.5h4.5l-0.8-4.5H593.4z M618.6,179.8h6l1.1,6.6
		h4.5l-1.1-6.6h6l1.1,6.6h4.1l1,6h-4.1l0.8,4.5h4.1l1,6H639l1.1,6.2h-6l-1.1-6.2h-4.5l1.1,6.2h-6l-1.1-6.2h-4.1l-1-6h4.1l-0.8-4.5
		h-4.1l-1-6h4.1L618.6,179.8L618.6,179.8z M626.8,192.4l0.8,4.5h4.5l-0.8-4.5H626.8L626.8,192.4z M539.3,115.3l-8.4-15.4
		c7-3.5,14.6-7,25.2-7.4c16.8-0.7,30.2,8.4,30.3,22.3c0.1,14.4-7.7,18.5-18.1,20.6c-6.6,1.3-9.8,2.2-9.9,6.1c0,2.5,1.8,4.1,5.9,4.5
		c4.1,0.4,8.7-1.1,12.8-3.6l7.6,14.2c-5.8,2.8-13.6,4.6-21.1,4.5c-17.8-0.1-27.7-9.2-27.9-21.8c-0.2-15,9.9-16.1,18.8-19.1
		c6.8-2.3,9.3-3.1,9.5-6.2c0.1-3.5-2.8-4.5-8.2-4.4C548.2,109.8,543.1,113.2,539.3,115.3"/>
	<path id="path3348" inkscape:connector-curvature="0" class="st1" d="M233.1,123.2h-23c-1.6-6.6-7.5-11.5-14.6-11.5
		c-7,0-12.9,4.9-14.6,11.5h-23c2-17.3,18.1-30.8,37.5-30.8C215,92.4,231.1,105.9,233.1,123.2"/>
	<path id="path3350" inkscape:connector-curvature="0" class="st2" d="M318.9,123.2h-23c-1.6-6.6-7.5-11.5-14.6-11.5
		c-7,0-12.9,4.9-14.6,11.5h-23c2-17.3,18.1-30.8,37.5-30.8C300.8,92.4,316.9,105.9,318.9,123.2"/>
	<path id="path3352" inkscape:connector-curvature="0" class="st3" d="M403.1,123.2h-22.4c-1.5-6.5-7-11.2-14-11.2
		s-12.3,4.7-13.8,11.2H329C330.8,106,345.2,93,362.7,93c6.3,0,12.7,2.8,18,8.4v-6.2h22.4V123.2L403.1,123.2z"/>
	<path id="path3354" inkscape:connector-curvature="0" class="st4" d="M440,123.2h-22.1v-28H440V123.2z"/>
	<path id="path3356" inkscape:connector-curvature="0" class="st5" d="M474.5,123.2H453c1.9-17.3,17.5-30.8,34.6-30.8
		c18.2,0,29.3,9.1,34.5,21.7h-21.8c-2.7-4-5.5-6.6-11.6-6.6S475.8,114.1,474.5,123.2"/>
	<path id="path3358" inkscape:connector-curvature="0" class="st6" d="M585.2,123.2h-39.6c2.8-1.2,5.9-1.9,8.8-2.9
		c6.8-2.3,9.3-3.1,9.5-6.2c0.1-3.5-2.8-4.5-8.2-4.4c-7.5,0.2-12.5,3.6-16.3,5.6L531,99.9c7-3.5,14.6-7,25.2-7.4
		c16.8-0.7,30.2,8.4,30.3,22.3C586.3,118,586,120.8,585.2,123.2"/>
</g>
<text transform="matrix(1 0 0 1 81.875 290)" class="st7 st8 st9">pražský gay pěvecký sbor</text>
</svg>
