<svg width="147" height="31" viewBox="0 0 147 31" fill="none" xmlns="http://www.w3.org/2000/svg">
<g clip-path="url(#clip0_1_21316)">
<path d="M71.3591 16.0371V20.3305C71.4223 19.882 71.6102 19.4582 71.9029 19.1042C72.1837 18.7715 72.5314 18.497 72.9251 18.2972C73.3301 18.0913 73.7671 17.9501 74.219 17.8791C74.6728 17.8042 75.1346 17.7852 75.5933 17.8227V25.178C75.5745 25.3651 75.535 25.5497 75.4754 25.7287C75.3899 25.9882 75.2607 26.2323 75.0929 26.4513C74.9264 26.6688 74.7258 26.8601 74.4983 27.0183C74.2648 27.1801 74.003 27.3 73.7254 27.3723H81.445C81.1366 27.3218 80.8447 27.203 80.5921 27.0252C80.3485 26.8527 80.1393 26.6391 79.9746 26.3948C79.8073 26.1482 79.6806 25.8779 79.5993 25.5938C79.5167 25.3102 79.4746 25.017 79.4742 24.7224V17.8227H79.8567C80.1772 17.8296 80.4966 17.8602 80.8123 17.914C81.2176 17.9799 81.6128 18.0942 81.9888 18.2542C82.3947 18.4301 82.7596 18.6832 83.0615 18.9982C83.4009 19.3595 83.6254 19.8071 83.7084 20.2878V16.0371H71.3591Z" fill="white"/>
<path d="M70.1976 16.0371H58.0239C58.2811 16.1264 58.5146 16.2691 58.708 16.4552C58.8997 16.6406 59.0607 16.8532 59.1855 17.0856C59.3124 17.3212 59.4086 17.571 59.472 17.8293C59.5192 18.0186 59.5492 18.2115 59.5617 18.4058V25.0337C59.5121 25.5024 59.3561 25.9549 59.1047 26.359C58.9734 26.5705 58.8155 26.7654 58.6346 26.9395C58.4553 27.1131 58.2494 27.2591 58.024 27.3723H65.2431C64.9595 27.3072 64.6969 27.1761 64.4783 26.9902C64.2756 26.8145 64.1065 26.6058 63.9787 26.3737C63.8485 26.1356 63.7569 25.8798 63.7071 25.615C63.6531 25.3442 63.6258 25.0691 63.6254 24.7934V22.2435C64.0373 22.2435 64.4245 22.2551 64.787 22.2784C65.1236 22.2967 65.4544 22.3711 65.7647 22.4984C66.0591 22.625 66.3166 22.8196 66.5144 23.0651C66.7549 23.3853 66.9183 23.7532 66.9928 24.1419V18.9564C66.8401 19.3186 66.6371 19.6591 66.3896 19.9688C66.2016 20.1965 65.963 20.3806 65.6913 20.5075C65.4109 20.6304 65.1096 20.7026 64.8022 20.7205C64.4684 20.7434 64.0762 20.7551 63.6254 20.7555V17.6388L65.8312 17.6523C66.1739 17.6523 66.5291 17.6663 66.8968 17.6944C67.2591 17.7221 67.6182 17.7793 67.9705 17.8653C68.3175 17.95 68.6531 18.0734 68.9704 18.2331C69.2869 18.3927 69.5688 18.6092 69.801 18.8708C69.8871 18.9666 69.9658 19.0683 70.0363 19.1752C70.1089 19.2821 70.1633 19.3993 70.1977 19.5226L70.1976 16.0371Z" fill="white"/>
<path d="M50.7615 26.7908C50.5752 26.9545 50.3646 27.0906 50.1368 27.1946C49.9309 27.2842 49.7984 27.3432 49.7392 27.3716H58.0469C57.9103 27.3436 57.7787 27.296 57.6567 27.2304C57.5377 27.1657 57.4224 27.0946 57.3114 27.0176C57.0169 26.8173 56.7501 26.5816 56.5174 26.3163C56.2989 26.0612 56.1069 25.786 55.9442 25.4947C55.7714 25.184 55.6217 24.862 55.4961 24.531L54.8925 22.8035L54.0771 20.4716L52.504 16.0361H45.6081C45.8261 16.0884 46.0363 16.1672 46.2337 16.2707C46.4098 16.3712 46.5704 16.4949 46.7109 16.6384C46.8757 16.8078 46.9922 17.0155 47.049 17.2412C47.0978 17.4463 47.0978 17.6593 47.049 17.8644C47.0033 18.0721 46.9394 18.2758 46.8583 18.4732C46.6621 18.9649 46.5125 19.3546 46.4093 19.6422C46.3784 19.7296 46.3454 19.8106 46.31 19.8911L45.064 22.9934C44.996 23.173 44.8931 23.4375 44.7553 23.787C44.618 24.1366 44.4637 24.5003 44.2923 24.8781C44.1208 25.2561 43.9395 25.6103 43.7482 25.9408C43.6099 26.2031 43.4287 26.4422 43.2115 26.649C43.0465 26.7802 42.8748 26.9032 42.6969 27.0176C42.5212 27.1304 42.381 27.2158 42.2782 27.2722C42.2199 27.3021 42.1635 27.3352 42.1094 27.3716H48.3135C47.8734 27.2828 47.4801 27.0468 47.2033 26.7054C46.9372 26.3558 46.7909 25.935 46.7846 25.5015C46.791 25.3672 46.8133 25.234 46.8512 25.1046C46.8945 24.9345 46.9489 24.7626 47.0128 24.5874C47.0758 24.4127 47.142 24.2451 47.2113 24.0845C47.2788 23.9238 47.3287 23.8004 47.3578 23.7159H50.8423C50.8714 23.7921 50.9106 23.8981 50.9603 24.035C51.009 24.1718 51.0604 24.3112 51.1145 24.4531C51.168 24.5948 51.2176 24.7317 51.2619 24.8643C51.3052 24.9961 51.3374 25.0952 51.357 25.161C51.4506 25.4806 51.4245 25.8218 51.2833 26.1247C51.1556 26.3771 50.9784 26.6033 50.7615 26.7908ZM47.7403 22.37L48.9752 18.6863L50.2691 22.37H47.7403Z" fill="white"/>
<path d="M38.383 21.7195C38.6825 21.587 38.959 21.4107 39.2026 21.1968L39.2789 21.1232C39.3924 21.0153 39.498 20.8999 39.5948 20.7779C39.6073 20.7615 39.6216 20.7461 39.6341 20.7292C40.1241 20.1584 40.3597 19.4239 40.2896 18.6861H40.2887C40.2691 18.3638 40.1831 18.0485 40.0358 17.7586C39.9463 17.5822 39.8406 17.4139 39.7199 17.2557C39.5237 16.9908 39.2672 16.7727 38.9702 16.6179C38.664 16.4564 38.3379 16.3326 37.9997 16.2493C37.655 16.1643 37.3035 16.1076 36.9489 16.0798C36.5905 16.0509 36.2596 16.0366 35.9561 16.0371H27.8701C28.1437 16.1036 28.4009 16.2215 28.627 16.3842C28.8472 16.5658 29.025 16.7903 29.1488 17.0429C29.323 17.4116 29.4085 17.8135 29.399 18.2185C29.4088 18.4648 29.4139 18.7154 29.4142 18.9703V24.7788C29.4125 25.0344 29.3803 25.289 29.3182 25.5374C29.2552 25.7949 29.1615 26.0445 29.0388 26.2812C28.9175 26.5159 28.7588 26.7309 28.5684 26.9184C28.3766 27.1083 28.1498 27.2622 27.8995 27.3723H34.8834C34.7303 27.3186 34.5805 27.2569 34.4344 27.1876C34.2621 27.105 34.1055 26.9949 33.9714 26.862C33.808 26.6965 33.6761 26.5045 33.5818 26.2949C33.4543 26.002 33.3775 25.6908 33.3545 25.3739C33.3046 24.8558 33.2848 24.3354 33.295 23.8152C33.3049 23.2868 33.3099 22.7675 33.3102 22.2573H33.7806C33.9969 22.2573 34.2066 22.2564 34.4097 22.2547C36.2515 26.4 36.8922 27.3723 38.7253 27.3723H42.759C41.3784 27.3723 39.6135 24.2565 38.383 21.7194ZM33.06 20.7128V17.709C33.4228 17.709 33.7824 17.7021 34.1407 17.6875C34.4651 17.67 34.7903 17.7035 35.1035 17.7866C35.3789 17.8614 35.6215 18.0205 35.7947 18.2399C35.9948 18.5464 36.0874 18.9067 36.0589 19.2677C36.0864 19.6071 35.9846 19.9446 35.7724 20.2168C35.5806 20.4252 35.3265 20.5713 35.045 20.6349C34.7275 20.7078 34.4012 20.7389 34.0751 20.7274C33.7218 20.7171 33.3839 20.7128 33.06 20.7128" fill="white"/>
<path d="M104.115 26.276C103.98 25.969 103.909 25.6395 103.905 25.306V18.0768C103.913 17.8974 103.933 17.7187 103.965 17.5419C104.006 17.3172 104.08 17.0995 104.186 16.8957C104.292 16.697 104.438 16.5204 104.615 16.376C104.82 16.2139 105.054 16.0903 105.306 16.0119H99.0866C99.3417 16.0788 99.5775 16.201 99.7761 16.3692C99.9789 16.5654 100.14 16.7977 100.251 17.0531C100.411 17.4435 100.484 17.8618 100.466 18.2811V24.8884C100.466 25.0557 100.462 25.2569 100.453 25.4923C100.459 25.8244 100.383 26.1532 100.231 26.4516C100.116 26.6698 99.9595 26.8653 99.7697 27.0281C99.7384 27.0539 99.7022 27.078 99.6669 27.1031C98.1421 26.5046 96.554 25.0285 95.3779 23.258C94.6853 22.2161 93.9033 20.8353 93.2518 19.6299C93.8641 18.8915 94.45 18.2045 94.9225 17.6807C95.8486 16.818 97.0097 16.2264 98.271 15.9746H93.1945C93.3285 16.2005 93.3811 16.4629 93.344 16.7207C93.3069 16.9785 93.1823 17.2172 92.9896 17.3995L89.6254 21.3196V18.4503C89.6359 18.3076 89.6371 18.1688 89.6539 18.0236C89.6885 17.7066 89.7586 17.3941 89.8629 17.0916C89.9518 16.8265 90.0933 16.5805 90.2796 16.3674C90.4562 16.1678 90.6974 16.0314 90.9643 15.98H84.4519C84.7475 16.0138 85.0252 16.134 85.2478 16.3244C85.4511 16.5054 85.6132 16.7252 85.7238 16.9698C85.8401 17.2259 85.9204 17.4959 85.9625 17.7726C85.9811 17.898 85.9961 18.0191 86.0072 18.1394L86.029 18.5905V24.4625L86.0445 24.464V24.7749L86.0226 25.2259C86.0116 25.3463 85.9966 25.4674 85.9779 25.5928C85.9359 25.8695 85.8556 26.1395 85.7392 26.3956C85.6286 26.6402 85.4665 26.86 85.2632 27.041C85.0406 27.2314 84.7629 27.3516 84.4673 27.3854H90.9797C90.7128 27.334 90.4716 27.1976 90.295 26.998C90.1087 26.7849 89.9672 26.5389 89.8783 26.2738C89.774 25.9713 89.7039 25.6588 89.6693 25.3418C89.6343 25.0394 89.6179 24.7444 89.6099 24.4528V24.1541C89.8691 23.8247 90.2661 23.3207 90.7402 22.7259C90.9971 23.143 91.2711 23.5766 91.5538 24.0078C92.9 26.0611 93.9741 27.3892 95.6811 27.3892C97.3886 27.3892 105.279 27.3854 105.279 27.3854C105.024 27.2874 104.791 27.1451 104.59 26.9655C104.39 26.7648 104.229 26.5313 104.115 26.276Z" fill="white"/>
<path d="M119.786 18.397C119.786 18.2167 119.796 18.0218 119.816 17.8133C119.835 17.6064 119.875 17.4018 119.934 17.2021C119.99 17.008 120.072 16.8217 120.177 16.6474C120.282 16.4765 120.42 16.3267 120.583 16.2061C120.755 16.0782 120.959 15.9951 121.174 15.9648H115.757C116.056 15.9796 116.342 16.084 116.576 16.2636C116.789 16.4362 116.961 16.6523 117.077 16.8964C117.203 17.1553 117.288 17.4311 117.328 17.7144C117.371 17.9875 117.394 18.2633 117.395 18.5395V23.632L112.317 15.9648H106.177C106.474 15.9697 106.76 16.0724 106.988 16.2558C107.196 16.4332 107.358 16.6549 107.461 16.9033C107.572 17.1678 107.646 17.4451 107.682 17.7282C107.72 17.9972 107.74 18.2682 107.741 18.5396C107.741 18.6528 107.743 18.8219 107.748 19.0442V24.4365C107.746 24.6752 107.739 24.9147 107.726 25.1542C107.716 25.3344 107.702 25.5193 107.682 25.7088C107.664 25.895 107.624 26.0787 107.564 26.2565C107.506 26.431 107.421 26.5964 107.314 26.7476C107.2 26.9031 107.054 27.0339 106.885 27.1314C106.843 27.1564 106.799 27.1779 106.753 27.1958C106.694 27.2188 106.631 27.2404 106.568 27.2594C106.504 27.278 106.447 27.297 106.398 27.316C106.37 27.329 106.34 27.3384 106.31 27.3442H111.608C111.461 27.2688 111.336 27.2002 111.232 27.1383C111.125 27.0733 111.021 27.0022 110.922 26.9253C110.829 26.8543 110.743 26.7756 110.664 26.6901C110.435 26.419 110.282 26.0954 110.221 25.7508C110.154 25.4086 110.12 25.0613 110.118 24.7131V19.702L115.115 27.3442H121.174C120.959 27.3136 120.756 27.2306 120.583 27.103C120.42 26.9824 120.282 26.8326 120.177 26.6616C120.072 26.4875 119.991 26.3012 119.934 26.1073C119.875 25.9073 119.835 25.7023 119.816 25.4952C119.796 25.2864 119.786 25.0921 119.786 24.9121V18.397Z" fill="white"/>
<path d="M145.994 22.8268C145.922 22.6199 145.829 22.4201 145.716 22.2303C145.524 21.9045 145.259 21.6245 144.939 21.4111L144.938 21.4094C144.899 21.3825 144.86 21.3552 144.822 21.3299L144.814 21.3249C144.641 21.2078 144.46 21.101 144.273 21.0052C142.943 20.3225 141.576 20.3192 140.48 20.071C140.306 20.0322 140.135 19.9837 139.968 19.9257C139.906 19.9026 139.846 19.8787 139.785 19.8525C139.553 19.7527 139.336 19.6219 139.142 19.464C138.97 19.3211 138.847 19.1314 138.789 18.92C138.759 18.8349 138.749 18.7446 138.758 18.6552C138.768 18.5659 138.798 18.4796 138.845 18.4024C138.99 18.1906 139.18 18.0117 139.404 17.8782C139.642 17.7345 139.902 17.6266 140.174 17.5584C140.466 17.4849 140.768 17.4504 141.071 17.4558C141.384 17.4601 141.695 17.5037 141.997 17.5856C142.342 17.6684 142.679 17.7777 143.006 17.9125C143.241 18.0127 143.461 18.1405 143.663 18.2931C143.762 18.3701 143.856 18.4522 143.946 18.5388C144.04 18.6291 144.138 18.7243 144.242 18.8247C144.345 18.924 144.461 19.0349 144.588 19.1582C144.715 19.2807 144.873 19.428 145.061 19.6001V15.6113C145.061 15.6113 144.744 16.3738 143.487 16.3738C143.134 16.3648 142.783 16.3376 142.434 16.2924C142.076 16.2373 141.714 16.1815 141.346 16.1215C140.94 16.0602 140.528 16.0355 140.117 16.0475C139.552 16.0462 138.988 16.1194 138.443 16.2651C137.924 16.4 137.433 16.6235 136.995 16.925C136.547 17.2303 136.184 17.6385 135.939 18.1127C135.695 18.587 135.577 19.1123 135.596 19.6415C135.573 20.1205 135.688 20.5963 135.929 21.0159C136.104 21.2957 136.321 21.5492 136.572 21.7685L136.575 21.771C136.583 21.7784 136.592 21.785 136.6 21.7925C136.628 21.8153 136.656 21.8384 136.684 21.8607C136.728 21.8967 136.774 21.9312 136.819 21.9658C137.734 22.6427 139.027 22.9707 140.521 23.3001C140.551 23.3067 140.577 23.3117 140.605 23.3175L140.616 23.3199C140.77 23.3527 140.923 23.3905 141.077 23.4333C141.361 23.509 141.636 23.6139 141.897 23.7462C142.108 23.8497 142.296 23.993 142.448 24.1677C142.512 24.239 142.555 24.3245 142.575 24.4163C142.595 24.5081 142.59 24.6032 142.561 24.6927C142.527 24.847 142.459 24.9923 142.361 25.119C142.264 25.2457 142.14 25.3508 141.997 25.4272C141.701 25.5758 141.375 25.6595 141.043 25.6721C140.68 25.6899 140.317 25.6626 139.962 25.5909C139.641 25.5299 139.324 25.4478 139.015 25.3452C138.404 25.1285 137.822 24.8453 137.278 24.5012C136.916 24.263 136.574 23.9991 136.254 23.7118C135.912 23.4029 135.611 23.0556 135.356 22.6774V27.4337C135.89 27.1363 136.488 26.9627 137.104 26.9268L137.109 26.9318C137.307 26.8993 137.507 26.8812 137.708 26.8776C138.016 26.8728 138.323 26.8955 138.626 26.9456C138.934 26.9952 139.238 27.061 139.538 27.1428C139.861 27.2232 140.189 27.2822 140.52 27.3195C140.85 27.3562 141.183 27.3745 141.516 27.3745C142.079 27.3736 142.64 27.3118 143.189 27.1904C143.728 27.0771 144.24 26.8694 144.701 26.5776C145.15 26.2912 145.524 25.9095 145.796 25.4618C146.093 24.9443 146.235 24.3575 146.206 23.7668C146.169 23.4474 146.098 23.1324 145.994 22.8268" fill="white"/>
<path d="M129.09 21.7318C129.271 21.902 129.4 22.117 129.463 22.3533C129.53 22.6124 129.558 22.8794 129.545 23.1461C129.536 23.4359 129.536 23.728 129.545 24.0223C129.545 24.1699 129.55 24.3422 129.56 24.5406C129.571 24.7323 129.543 24.9243 129.479 25.106C129.408 25.2924 129.277 25.4521 129.105 25.5615C128.849 25.7032 128.555 25.7681 128.261 25.7481C127.886 25.7651 127.515 25.6684 127.2 25.4717C126.932 25.289 126.712 25.0482 126.557 24.7687C126.402 24.4851 126.291 24.1812 126.227 23.8666V23.8733C125.881 22.4509 125.869 20.9719 126.192 19.5445C126.262 19.229 126.383 18.926 126.55 18.6466C126.713 18.3779 126.934 18.1471 127.2 17.9704C127.498 17.7823 127.845 17.6795 128.201 17.6739C128.381 17.6658 128.562 17.6775 128.739 17.7088C128.928 17.7406 129.107 17.7754 129.277 17.812C130.127 17.9882 130.939 18.3083 131.674 18.7573C132.458 19.1592 133.085 19.7964 133.46 20.5725V15.5664C133.381 15.7972 133.253 16.0095 133.083 16.1893C132.914 16.3692 132.707 16.5126 132.476 16.6102C132.334 16.6567 132.188 16.6918 132.041 16.7151C132.007 16.7193 131.971 16.7227 131.935 16.7252C131.913 16.7268 131.89 16.7268 131.868 16.7277C131.585 16.7259 131.303 16.7034 131.024 16.6602C130.719 16.6171 130.419 16.5477 130.128 16.4526C129.829 16.3561 129.545 16.2756 129.277 16.2111C129.007 16.1464 128.732 16.1003 128.455 16.073C128.172 16.0454 127.888 16.0318 127.603 16.0323C127.025 16.03 126.448 16.0922 125.885 16.2177C125.348 16.3383 124.83 16.5289 124.347 16.7843C123.87 17.0361 123.437 17.3573 123.062 17.7364C122.761 18.0431 122.502 18.3863 122.292 18.7573L122.285 18.769C121.633 20.2478 121.45 21.8795 121.759 23.4585C121.838 23.776 121.943 24.0868 122.074 24.3879C122.141 24.5405 122.214 24.688 122.293 24.8303C122.591 25.3772 122.997 25.8626 123.488 26.2589C123.987 26.6536 124.56 26.9512 125.176 27.135C125.875 27.3402 126.605 27.4311 127.335 27.404C127.665 27.3931 127.993 27.3471 128.313 27.2667C128.646 27.1833 128.983 27.0911 129.321 26.99C129.66 26.8885 130.001 26.7928 130.345 26.7002C130.674 26.6104 131.012 26.557 131.353 26.5412C131.681 26.5275 132.009 26.5649 132.324 26.6519C132.664 26.7504 132.975 26.9228 133.235 27.1557V23.8158C133.236 23.5709 133.256 23.3264 133.295 23.0844C133.333 22.8352 133.403 22.5917 133.504 22.3597C133.603 22.1357 133.745 21.932 133.923 21.7593C134.111 21.5791 134.342 21.4463 134.595 21.3727H128.201C128.528 21.4027 128.838 21.5279 129.09 21.7317" fill="white"/>
<path d="M14.0877 6.08812C14.0877 6.08812 14.1326 6.19236 14.2011 6.37192C14.1824 6.27025 14.1616 6.16945 14.1371 6.06836C14.1208 6.07437 14.1048 6.08125 14.0876 6.08812" fill="white"/>
<path d="M30.1616 2.86894C29.644 3.09671 29.201 3.45666 28.8805 3.90978C28.56 4.36291 28.3744 4.89192 28.3436 5.43948L28.3409 5.44034C27.9185 5.15243 27.4282 4.9706 26.9145 4.9113C26.4008 4.85199 25.8798 4.91709 25.3988 5.1007C25.438 5.22612 25.4857 5.34894 25.5414 5.46841C25.7238 5.85537 25.9897 6.20046 26.3212 6.48073C26.6528 6.76099 27.0424 6.97002 27.4643 7.09389C26.996 7.79388 26.3788 8.39001 25.6534 8.84281C25.3379 9.03827 24.9761 9.15353 24.6018 9.17788C24.1304 9.23172 23.6532 9.14797 23.2318 8.93746C22.8104 8.72694 22.4642 8.39937 22.2382 7.99713C21.9537 8.48777 21.4913 8.85995 20.9396 9.04233C20.388 9.2247 19.7859 9.20443 19.2488 8.98542C19.1058 8.90524 18.965 8.82047 18.8301 8.72912C17.6778 7.95678 16.8383 6.82404 16.454 5.5231C16.4715 5.52225 16.4885 5.52053 16.5063 5.51881C16.984 5.46758 17.4429 5.31026 17.8469 5.05922C18.2509 4.80818 18.589 4.47026 18.8345 4.07202C18.8881 3.98624 18.937 3.89782 18.981 3.80712C18.5932 3.53002 18.1438 3.34378 17.6683 3.26315C17.1929 3.18253 16.7045 3.20973 16.2418 3.34261C16.1467 3.3701 16.0519 3.40247 15.9586 3.43855C15.9284 2.80786 15.7516 2.19176 15.4412 1.63573C15.1309 1.07969 14.6949 0.597918 14.1656 0.225957C14.0374 0.155379 13.9052 0.0917033 13.7697 0.0352248L13.6812 0L13.62 0.0753219C13.541 0.17411 13.4683 0.277497 13.4025 0.384896C12.8096 1.35715 12.9731 3.10234 13.5276 4.01045C13.4283 4.0216 13.3288 4.03794 13.2313 4.05828C12.8111 4.14589 12.4143 4.31661 12.0661 4.55963C11.7178 4.80265 11.4257 5.11269 11.2082 5.47012C11.1555 5.55663 11.1075 5.64573 11.0644 5.73705C11.1484 5.79603 11.2355 5.8508 11.3253 5.90115C11.7393 6.13619 12.2043 6.27537 12.6836 6.30772C13.1629 6.34008 13.6435 6.26472 14.0874 6.08758C14.1044 6.08071 14.1204 6.07469 14.1362 6.06782C14.4248 7.27857 14.3058 8.54644 13.7965 9.68765L13.792 9.67133C13.784 9.70025 13.7733 9.72947 13.7644 9.75953C13.7299 9.83285 13.6943 9.90644 13.6571 9.97918C13.5674 10.1551 13.4682 10.3264 13.36 10.4924C12.9955 10.934 12.4742 11.2298 11.8968 11.3228C11.3193 11.4157 10.7266 11.2993 10.233 10.9958C10.2313 11.4533 10.0871 11.8998 9.81916 12.2774C9.55118 12.6551 9.17173 12.9464 8.72994 13.1139C8.51943 13.1938 8.29803 13.244 8.07261 13.2628C7.09422 13.2468 6.13413 13.0046 5.27309 12.5566C5.58108 12.2523 5.81818 11.8882 5.96858 11.4886C6.11897 11.0889 6.1792 10.663 6.14525 10.2392C6.13455 10.1066 6.11434 9.86289 6.08759 9.73717C5.01308 9.86719 4.12575 10.7905 3.67852 11.2865H3.67586C3.08243 10.7905 1.99186 9.90556 0.797564 9.9929C0.522331 10.0352 0.254139 10.1126 0 10.2229C1.33325 11.1874 2.60297 12.2309 3.80182 13.3473C4.64397 14.1248 5.45224 14.9541 6.22427 15.8032C7.29701 16.9857 9.1293 19.3741 9.13107 19.3732C9.6086 19.8014 10.2422 20.0307 10.8941 20.0113C10.9341 20.0056 10.9709 19.9867 10.9981 19.9578C11.0253 19.9289 11.0413 19.8919 11.0433 19.8529C11.051 19.7905 10.9393 19.753 10.8816 19.7281C10.664 19.6527 10.469 19.5266 10.3142 19.361C10.1594 19.1954 10.0495 18.9955 9.99434 18.779C9.64933 17.7375 12.8824 15.8571 17.6081 14.701C22.3347 13.5457 26.1307 13.6861 26.35 14.7608C26.4097 14.9763 26.4132 15.2027 26.3602 15.4197C26.3072 15.6368 26.1994 15.8379 26.0462 16.0052C26.0082 16.0538 25.9283 16.1395 25.9684 16.1907C25.9895 16.2241 26.022 16.2494 26.0603 16.2624C26.0986 16.2753 26.1403 16.2751 26.1785 16.2617C26.759 15.9768 27.1999 15.4831 27.4057 14.8874C27.4057 14.8874 27.9133 11.9271 28.2619 10.393C28.513 9.28985 28.8135 8.20162 29.1635 7.12827C29.6606 5.60122 30.2563 4.1056 30.947 2.65016C30.6763 2.68924 30.4122 2.76282 30.1616 2.86895" fill="white"/>
<path d="M13.4655 17.0074C16.0177 15.9563 18.7057 15.243 21.4564 14.8867C21.4564 14.8867 26.8219 15.3956 26.8219 21.4651C26.8219 27.5347 22.3419 30.9995 16.2436 30.9995C10.1462 30.9995 6.93066 28.4093 6.93066 25.65C6.93066 22.8904 8.98908 22.4509 9.94653 22.4509C10.7148 22.5055 11.4291 22.8515 11.933 23.4131C12.4368 23.9747 12.6889 24.7059 12.634 25.4464C12.634 25.4464 10.9111 25.0386 10.9111 26.475C10.9111 27.9115 12.9481 28.8062 15.7414 28.8062C18.5338 28.8062 22.4777 27.6269 22.4777 22.3724C22.4777 16.7662 19.7858 16.5156 17.9142 16.5156V26.1322C17.9297 26.3688 18.0409 26.59 18.224 26.7482C18.4071 26.9064 18.6474 26.9889 18.8931 26.9779C18.8931 26.9779 17.9089 27.7783 15.4734 27.7783C13.0379 27.7783 12.344 27.0249 12.344 27.0249C12.344 27.0249 13.4967 27.0292 13.4967 26.0492C13.4967 25.0701 13.4655 17.0073 13.4655 17.0073" fill="white"/>
</g>
<defs>
<clipPath id="clip0_1_21316">
<rect width="146.207" height="31" fill="white"/>
</clipPath>
</defs>
</svg>
