<svg width="325" height="65" viewBox="0 0 325 65" fill="none" xmlns="http://www.w3.org/2000/svg">
    <g fill="#fff">
        <path d="M93.157 56.4893H101.013V19.9766H101.696L115.939 56.4893H123.009L137.252 19.9766H137.935V56.4893H145.757V7.30469H134.691L119.799 45.4911H119.116L104.258 7.30469H93.157V56.4893Z"/>
        <path d="M149.675 38.8306C149.675 50.9902 156.506 57.309 167.162 57.309C177.921 57.309 182.054 50.9219 182.942 46.3108V45.2861H175.838C175.326 48.1211 172.901 51.4684 167.06 51.4684C161.014 51.4684 157.565 47.233 157.428 40.8117H183.66V37.4303C183.66 26.8077 177.682 20.3864 167.094 20.3864C156.472 20.3864 149.675 26.6711 149.675 38.8306ZM157.53 35.2443C157.974 30.0184 161.083 26.1588 167.026 26.1588C173.071 26.1588 175.94 29.9159 176.009 35.2443H157.53Z"/>
        <path d="M186.614 30.8723C186.614 37.0887 191.259 40.1286 197.885 41.2216L204.033 42.2121C207.79 42.861 210.318 43.8516 210.318 46.789C210.318 49.7947 207.688 51.7416 202.633 51.7416C197.578 51.7416 193.786 49.7264 193.411 45.5935H185.896V46.6182C186.75 52.9371 192.557 57.309 202.633 57.309C212.675 57.309 217.969 52.9712 217.969 46.2425C217.969 39.6504 213.05 37.1912 205.98 36.0299L199.798 35.0393C196.69 34.4928 194.23 33.4682 194.23 30.5649C194.23 27.73 196.997 26.0222 201.471 26.0222C206.048 26.0222 209.088 27.6958 209.362 31.5896H216.739V30.5649C215.988 24.5876 210.489 20.4547 201.267 20.4547C192.113 20.4547 186.614 24.451 186.614 30.8723Z"/>
        <path d="M220.505 30.8723C220.505 37.0887 225.151 40.1286 231.777 41.2216L237.925 42.2121C241.682 42.861 244.21 43.8516 244.21 46.789C244.21 49.7947 241.58 51.7416 236.525 51.7416C231.47 51.7416 227.678 49.7264 227.302 45.5935H219.788V46.6182C220.642 52.9371 226.449 57.309 236.525 57.309C246.566 57.309 251.861 52.9712 251.861 46.2425C251.861 39.6504 246.942 37.1912 239.872 36.0299L233.69 35.0393C230.581 34.4928 228.122 33.4682 228.122 30.5649C228.122 27.73 230.889 26.0222 235.363 26.0222C239.94 26.0222 242.98 27.6958 243.253 31.5896H250.631V30.5649C249.88 24.5876 244.38 20.4547 235.158 20.4547C226.005 20.4547 220.505 24.451 220.505 30.8723Z"/>
        <path d="M263.039 31.5896C263.209 27.969 266.284 26.0905 270.86 26.0905C275.471 26.0905 278.067 28.0032 278.067 31.6579C278.067 33.9805 276.701 34.7319 274.071 34.971L265.976 35.7566C259.145 36.4397 253.748 39.3771 253.748 46.4133C253.748 52.9712 259.213 57.1724 266.967 57.1724C273.969 57.1724 277.248 54.3716 279.024 51.3659H279.707C280.048 54.2008 281.961 56.4893 286.333 56.4893H289.919V50.9219H288.178C286.47 50.9219 285.684 50.1021 285.684 48.4285V33.434C285.684 24.3144 279.843 20.3864 270.997 20.3864C262.219 20.3864 256.412 24.3144 255.661 30.5649V31.5896H263.039ZM261.672 46.14C261.672 42.7927 264.132 41.3582 267.991 40.9825L272.534 40.5043C275.198 40.231 276.291 39.8895 277.35 39.2747H278.033V41.4607C278.033 48.8725 273.081 51.5025 268.504 51.5025C264.337 51.5025 261.672 49.419 261.672 46.14Z"/>
        <path d="M292.958 56.4893H301.053V37.7035C301.053 28.9937 305.938 26.8077 313.076 27.6958V20.8646C305.903 20.1132 302.898 22.9481 301.429 26.3979H300.746V21.2062H292.958V56.4893Z"/>
        <path d="M316.308 17.0053H324.506V9.08115H316.308V17.0053ZM316.376 56.4893H324.471V21.2062H316.376V56.4893Z"/>
        <path d="M0.142822 0V64.6133L17.8265 46.9267V17.6866L0.142822 0Z"/>
        <path d="M32.4497 32.2712L23.6079 23.4648V64.2732L41.2915 46.6605V23.4648L32.4497 32.2712Z"/>
        <path d="M47.0725 17.6577V64.2732L64.7561 46.6155V0L47.0725 17.6577Z"/>
    </g>
</svg>
